<?xml version="1.0" encoding="UTF-8"?>
<svg width="183px" height="34px" viewBox="0 0 183 34" version="1.1" xmlns="http://www.w3.org/2000/svg" xmlns:xlink="http://www.w3.org/1999/xlink">
    <g id="logo-new" stroke="none" stroke-width="1" fill="none" fill-rule="evenodd">
        <path d="M0.48106788,-2.35397095e-06 L33.2194012,-2.35397095e-06 C33.3472502,-0.000399660999 33.4700007,0.0501065891 33.5605459,0.14036793 C33.6284548,0.208063935 33.674058,0.293945552 33.6926154,0.386591942 L33.7019818,0.481070262 L33.7019818,18.0642525 C33.7012955,18.1565671 33.6389587,18.2341752 33.5540915,18.257957 L33.5007805,18.2654539 L31.0122375,18.2654539 C30.9201299,18.2647613 30.8428602,18.2022584 30.819664,18.1174779 L30.812549,18.0642525 L30.812549,12.0357761 C30.812549,11.7996104 30.6423711,11.6031918 30.4179537,11.5624589 L30.3314811,11.5547082 L3.36898795,11.5547082 C3.13312867,11.5554465 2.93712796,11.7253226 2.8959008,11.9494217 L2.88792007,12.0357761 L2.88792007,30.3299707 C2.88792007,30.4575578 2.93860386,30.5799193 3.02882159,30.670137 C3.09648489,30.7378003 3.18222905,30.7832258 3.274698,30.8017096 L3.36898795,30.8110386 L17.781358,30.8110386 C17.8736726,30.8117249 17.9512807,30.8740617 17.9750625,30.9589289 L17.9825594,31.0122399 L17.9825594,33.5022957 C17.9818668,33.5944033 17.9193639,33.6716708 17.8345834,33.6948681 L17.781358,33.7019842 L0.48106788,33.7019842 C0.244902143,33.7019842 0.0484835889,33.5318063 0.00775064761,33.3073889 L-1.42108547e-14,33.2209163 L-1.42108547e-14,0.481070262 C-1.42108547e-14,0.244904525 0.170177917,0.0484840888 0.39459532,0.00775072929 L0.48106788,-2.35397095e-06 L33.2194012,-2.35397095e-06 L0.48106788,-2.35397095e-06 Z M33.4765758,21.4665201 C33.5585063,21.466272 33.6322763,21.5160934 33.6626471,21.5921873 C33.6930179,21.6682812 33.6738264,21.7552058 33.6142399,21.8114385 L21.5224928,33.3782467 C21.4633964,33.4337304 21.376776,33.448332 21.3027564,33.4152875 C21.2287368,33.3822431 21.181776,33.308007 21.1835247,33.2269675 L21.1835247,22.0171782 C21.1869439,21.7120829 21.4352216,21.4665201 21.7403349,21.4665201 L33.4765758,21.4665201 Z" id="Shape" fill="#FA6F46" fill-rule="nonzero"></path>
        <path d="M104.173888,9.3868772 L106.435512,9.3868772 L112.173532,15.6619387 C112.966235,16.5242302 114.179495,17.8766663 114.972198,18.8796475 L115.019094,18.8569556 C114.981577,18.0364172 114.974074,17.1558512 114.972573,16.3221454 L114.972198,9.3868772 L117.846503,9.3868772 L117.846503,24.507234 L116.58786,24.507234 L110.173621,17.5105706 C109.123743,16.3668998 107.981585,15.0144637 107.048193,13.9176895 L107.001296,13.9418941 C107.041493,14.9792373 107.047236,16.0032431 107.048056,16.9205509 L107.048193,24.274264 L104.173888,24.274264 L104.173888,9.3868772 Z M53.7903478,9.20080378 C55.7267216,9.20080378 57.1487462,9.62135997 58.059447,10.1341965 L57.5224058,12.6756872 C56.7992912,12.2324391 55.4937517,11.789191 54.1171109,11.789191 C51.3653421,11.789191 48.8223386,13.6045415 48.8223386,16.8736852 C48.8223386,20.1428289 51.3411374,21.9581793 54.210904,21.9581793 C55.702517,21.9581793 56.8219831,21.6783128 57.6615827,21.2123728 L57.4059208,23.8007601 C56.5421166,24.2213163 55.4937517,24.4315944 53.7903478,24.4315944 C50.0083676,24.4315944 45.8602917,21.8416944 45.8602917,16.8283014 C45.8602917,11.789191 50.0598025,9.20080378 53.7903478,9.20080378 Z M68.8653208,9.22803404 L74.9527961,24.2712384 L72.0134411,24.2682128 L70.5914166,20.6753317 L65.3435409,20.6753317 L63.9215163,24.2682128 L61.0986463,24.2682128 L67.2088135,9.22803404 L68.8653208,9.22803404 Z M99.4585149,9.3868772 L99.4585149,11.8360876 L94.0684368,11.8360876 L94.0684368,15.5681456 L98.5463013,15.5681456 L98.5463013,18.0400479 L94.0684368,18.0400479 L94.0684368,21.8220281 L100.202809,21.8220281 L100.202809,24.2712384 L91.1547992,24.2682128 L91.1547992,9.3868772 L99.4585149,9.3868772 Z M145.805926,9.22803404 L151.893401,24.2712384 L148.947995,24.2682128 L147.52597,20.6753317 L142.278095,20.6753317 L140.854557,24.2682128 L138.0332,24.2682128 L144.141854,9.22803404 L145.805926,9.22803404 Z M160.490598,9.3868772 C162.821811,9.3868772 165.131844,10.8996693 165.131844,13.7255649 C165.163924,15.3679671 164.194461,16.864976 162.682634,17.5075451 L167.603747,24.2712384 L164.065326,24.2682128 L159.726638,18.0657653 L158.396894,18.0657653 L158.396894,24.2682128 L155.522589,24.2682128 L155.522589,9.3868772 L160.490598,9.3868772 Z M175.721389,9.3868772 C178.054114,9.3868772 180.362635,10.8996693 180.362635,13.7255649 C180.394714,15.3679671 179.425251,16.864976 177.913425,17.5075451 L182.834537,24.2712384 L179.296117,24.2682128 L174.957429,18.0657653 L173.627685,18.0657653 L173.627685,24.2682128 L170.75338,24.2682128 L170.75338,9.3868772 L175.721389,9.3868772 Z M81.5334416,9.3868772 L81.5334416,21.8190025 L87.6194042,21.8190025 L87.6194042,24.2682128 L78.5940866,24.2682128 L78.5940866,9.3868772 L81.5334416,9.3868772 Z M127.750752,9.3868772 C131.972955,9.3868772 135.76855,12.1099029 135.76855,16.8283014 C135.76855,21.5466999 131.972955,24.2682128 127.750752,24.2682128 L122.946125,24.2682128 L122.946125,9.3868772 L127.750752,9.3868772 Z M127.378605,11.8360876 L125.865813,11.8360876 L125.865813,21.865899 L127.378605,21.865899 C130.340652,21.865899 132.78835,20.2335964 132.78835,16.8509933 C132.78835,13.4683902 130.340652,11.8360876 127.378605,11.8360876 Z M67.9788247,13.5621833 L67.9319281,13.5621833 C67.7819429,14.1077931 67.6031834,14.6450816 67.3963997,15.1717941 L66.1604486,18.366811 L69.751817,18.366811 L68.5158658,15.1717941 L68.3403259,14.6818736 C68.2175096,14.329337 68.0877457,13.9353387 67.9788247,13.5621833 Z M144.913378,13.5621833 L144.866482,13.5621833 C144.71581,14.1075844 144.537062,14.6448373 144.330953,15.1717941 L143.09349,18.366811 L146.686371,18.366811 L145.45042,15.1717941 L145.27488,14.6818736 C145.152063,14.329337 145.022299,13.9353387 144.913378,13.5621833 Z M160.026171,11.8360876 L158.393869,11.8360876 L158.393869,15.754219 L160.026171,15.754219 C161.145637,15.754219 162.242424,15.1491022 162.242424,13.7951533 C162.245437,12.4669219 161.172868,11.8360876 160.026171,11.8360876 Z M175.2615,11.8360876 L173.627685,11.8360876 L173.627685,15.754219 L175.2615,15.754219 C176.380966,15.754219 177.476228,15.1491022 177.476228,13.7951533 C177.476228,12.4669219 176.403658,11.8360876 175.2615,11.8360876 Z" id="Shape" fill="#4A4A4A" fill-rule="nonzero"></path>
    </g>
</svg>