<svg viewBox="0 0 21 20" fill="currentColor" xmlns="http://www.w3.org/2000/svg"><path fill-rule="evenodd" clip-rule="evenodd" d="M10.4976 5.96558C8.24705 5.96558 6.44238 7.79148 6.44238 10.0208C6.44238 12.2501 8.24705 14.076 10.4976 14.076C12.7481 14.076 14.574 12.2501 14.574 10.0208C14.5528 7.77025 12.7481 5.96558 10.4976 5.96558ZM10.4976 5.96558C8.24705 5.96558 6.44238 7.79148 6.44238 10.0208C6.44238 12.2501 8.24705 14.076 10.4976 14.076C12.7481 14.076 14.574 12.2501 14.574 10.0208C14.5528 7.77025 12.7481 5.96558 10.4976 5.96558ZM17.3149 14.7345C15.1493 14.968 12.7501 15.0105 10.4996 15.0105C8.24909 15.0105 5.84993 14.968 3.68433 14.7345C3.06862 14.6708 2.72892 14.5222 2.64399 13.8428C2.5166 12.5901 2.5166 11.3162 2.5166 10.0211C2.5166 8.72601 2.5166 7.43089 2.64399 6.19947C2.70768 5.52006 3.04739 5.37144 3.68433 5.30775C5.84993 5.0742 8.24909 5.03174 10.4996 5.03174C12.7501 5.03174 15.1493 5.0742 17.3149 5.30775C17.9518 5.37144 18.2915 5.52006 18.3552 6.19947C18.4826 7.45212 18.4826 8.72601 18.4826 10.0211C18.4826 11.3162 18.4826 12.5901 18.3552 13.8428C18.2703 14.501 17.9306 14.6708 17.3149 14.7345ZM10.5 0C4.97983 0 0.5 4.50106 0.5 10C0.5 15.4989 4.97983 20 10.5 20C16.0202 20 20.5 15.4989 20.5 10C20.5 4.50106 16.0202 0 10.5 0ZM10.4976 5.96558C8.24705 5.96558 6.44238 7.79148 6.44238 10.0208C6.44238 12.2501 8.24705 14.076 10.4976 14.076C12.7481 14.076 14.574 12.2501 14.574 10.0208C14.5528 7.77025 12.7481 5.96558 10.4976 5.96558Z" fill="currentColor"/></svg>